<svg width="873" height="873" viewBox="0 0 873 873" fill="none" xmlns="http://www.w3.org/2000/svg">
<path d="M436.5 2.5C676.192 2.5 870.5 196.808 870.5 436.5C870.5 676.192 676.192 870.5 436.5 870.5C344.362 870.5 257.379 844.452 188.893 793.218C132.718 751.194 105.326 722.239 66.3652 663.24C23.777 598.748 2.5 519.696 2.5 436.5C2.5 196.808 196.808 2.5 436.5 2.5Z" fill="url(#paint0_linear_21_47019)" stroke="url(#paint1_linear_21_47019)" stroke-width="5"/>
<g filter="url(#filter0_d_21_47019)">
<path d="M235 221.553C235 197.115 261.286 181.696 282.616 193.622L649.996 399.023C671.414 410.997 671.939 441.63 650.945 454.332L283.565 676.615C262.239 689.519 235 674.163 235 649.237V221.553Z" fill="url(#paint2_linear_21_47019)"/>
</g>
<defs>
<filter id="filter0_d_21_47019" x="198.6" y="157.107" width="504.18" height="564.58" filterUnits="userSpaceOnUse" color-interpolation-filters="sRGB">
<feFlood flood-opacity="0" result="BackgroundImageFix"/>
<feColorMatrix in="SourceAlpha" type="matrix" values="0 0 0 0 0 0 0 0 0 0 0 0 0 0 0 0 0 0 127 0" result="hardAlpha"/>
<feOffset dy="4"/>
<feGaussianBlur stdDeviation="18.2"/>
<feComposite in2="hardAlpha" operator="out"/>
<feColorMatrix type="matrix" values="0 0 0 0 0 0 0 0 0 0 0 0 0 0 0 0 0 0 0.25 0"/>
<feBlend mode="normal" in2="BackgroundImageFix" result="effect1_dropShadow_21_47019"/>
<feBlend mode="normal" in="SourceGraphic" in2="effect1_dropShadow_21_47019" result="shape"/>
</filter>
<linearGradient id="paint0_linear_21_47019" x1="436.5" y1="0" x2="436.5" y2="873" gradientUnits="userSpaceOnUse">
<stop stop-color="#4EB0FF"/>
<stop offset="1" stop-color="#1958E0"/>
</linearGradient>
<linearGradient id="paint1_linear_21_47019" x1="61.158" y1="-0.000199193" x2="529.236" y2="925.471" gradientUnits="userSpaceOnUse">
<stop stop-color="#4BABFD"/>
<stop offset="0.405687" stop-color="#4BABFD" stop-opacity="0.01"/>
<stop offset="0.574372" stop-color="#4BABFD" stop-opacity="0.01"/>
<stop offset="1" stop-color="#4BABFD" stop-opacity="0.1"/>
</linearGradient>
<linearGradient id="paint2_linear_21_47019" x1="466.5" y1="167" x2="466.5" y2="706" gradientUnits="userSpaceOnUse">
<stop offset="0.495192" stop-color="#FFFEFF"/>
<stop offset="1" stop-color="#A8CCF7"/>
</linearGradient>
</defs>
</svg>
