<svg width="771" height="771" viewBox="0 -9.5 771 771" fill="none" xmlns="http://www.w3.org/2000/svg">
<path d="M385.5 2.5C597.084 2.5 768.5 169.78 768.5 376C768.5 582.22 597.084 749.5 385.5 749.5C304.168 749.5 227.403 727.073 166.974 682.98C117.39 646.802 93.2243 621.886 58.8389 571.099C21.2721 515.612 2.5 447.595 2.5 376C2.5 169.78 173.916 2.5 385.5 2.5Z" fill="url(#paint0_linear_21_5056)" stroke="url(#paint1_linear_21_5056)" stroke-width="5"/>
<g filter="url(#filter0_d_21_5056)">
<path fill-rule="evenodd" clip-rule="evenodd" d="M631.498 206.5C666.584 215.887 685.218 223.462 718 238C721.023 240.359 722.453 242.374 722.594 244.5C693.448 263.546 669.463 271.553 609.893 280C616.457 267.184 621.564 256.108 623.998 239C625.219 230.42 625.145 224.597 625.052 217.252V217.241C625.049 216.982 625.046 216.72 625.043 216.456C625.019 214.597 624.998 212.634 624.998 210.5C625.578 209.967 625.956 209.507 626.291 209.099C627.223 207.963 627.82 207.236 631.498 206.5Z" fill="#FDB44D"/>
<path d="M601.498 303.5C642.255 303.49 667.687 292.854 718 253.5C721.054 249.801 722.765 247.069 722.594 244.5C693.448 263.546 669.463 271.553 609.893 280C609.194 281.365 608.478 282.75 607.747 284.164C605.765 287.999 603.672 292.049 601.498 296.5C599.403 300.789 600.168 301.767 601.058 302.905C601.205 303.094 601.356 303.287 601.498 303.5Z" fill="#CF8A30"/>
<path d="M609.893 280C616.457 267.184 621.564 256.108 623.998 239C625.219 230.42 625.145 224.597 625.052 217.252V217.247V217.241L625.043 216.456C625.019 214.597 624.998 212.634 624.998 210.5C625.578 209.967 625.956 209.507 626.291 209.099C627.223 207.963 627.82 207.236 631.498 206.5C624.998 181.5 609.064 159.5 601.998 151.5C572.361 117.947 541.764 105.916 496.999 105.5C435.405 104.928 392.804 135.321 363.499 189.5C334.193 243.679 347 345.5 382.379 425.487C384.759 428.974 385.45 430.577 385.141 431.182C384.802 431.844 379.676 431.094 374.412 430.324L374.409 430.323C372.369 430.025 370.309 429.724 368.499 429.5C259.12 416.001 121.499 293 121.499 293C121.499 293 114.126 284.898 107.999 285C102.038 285.1 98.0027 287.851 94.9987 293C62.2668 349.101 68.0265 399.193 71.5115 429.502C71.8828 432.731 72.2283 435.736 72.4987 438.5C90.6328 523.063 117.649 552.104 140.015 576.147C145.142 581.658 150.024 586.906 154.499 592.5C206.02 643.853 281 677 320.499 677H470.999C514 677 585.781 633.778 604.998 569.5C615.45 507.365 594.649 471.591 573.534 435.274C552.418 398.958 535.167 390.758 532.499 356C531.976 349.186 530.633 339.034 532.499 338.5C534.364 337.966 536.531 337.437 538.954 336.845C553.797 333.219 578.225 327.253 601.498 303.5C601.356 303.287 601.205 303.094 601.058 302.905C600.168 301.767 599.403 300.789 601.498 296.5C603.672 292.049 605.765 287.999 607.747 284.164C608.478 282.75 609.194 281.365 609.893 280Z" fill="url(#paint2_linear_21_5056)"/>
</g>
<ellipse cx="537.5" cy="211" rx="32.5" ry="32" fill="black"/>
<circle cx="540" cy="200" r="8" fill="white"/>
<defs>
<filter id="filter0_d_21_5056" x="64.7637" y="105.492" width="661.842" height="579.508" filterUnits="userSpaceOnUse" color-interpolation-filters="sRGB">
<feFlood flood-opacity="0" result="BackgroundImageFix"/>
<feColorMatrix in="SourceAlpha" type="matrix" values="0 0 0 0 0 0 0 0 0 0 0 0 0 0 0 0 0 0 127 0" result="hardAlpha"/>
<feOffset dy="4"/>
<feGaussianBlur stdDeviation="2"/>
<feComposite in2="hardAlpha" operator="out"/>
<feColorMatrix type="matrix" values="0 0 0 0 0 0 0 0 0 0 0 0 0 0 0 0 0 0 0.25 0"/>
<feBlend mode="normal" in2="BackgroundImageFix" result="effect1_dropShadow_21_5056"/>
<feBlend mode="normal" in="SourceGraphic" in2="effect1_dropShadow_21_5056" result="shape"/>
</filter>
<linearGradient id="paint0_linear_21_5056" x1="385.5" y1="0" x2="385.5" y2="752" gradientUnits="userSpaceOnUse">
<stop stop-color="#4EB0FF"/>
<stop offset="1" stop-color="#1958E0"/>
</linearGradient>
<linearGradient id="paint1_linear_21_5056" x1="54.0124" y1="-0.000171585" x2="451.216" y2="805.183" gradientUnits="userSpaceOnUse">
<stop stop-color="#4BABFD"/>
<stop offset="0.405687" stop-color="#4BABFD" stop-opacity="0.01"/>
<stop offset="0.574372" stop-color="#4BABFD" stop-opacity="0.01"/>
<stop offset="1" stop-color="#4BABFD" stop-opacity="0.1"/>
</linearGradient>
<linearGradient id="paint2_linear_21_5056" x1="395.685" y1="105.492" x2="395.685" y2="677" gradientUnits="userSpaceOnUse">
<stop offset="0.495192" stop-color="#FFFEFF"/>
<stop offset="1" stop-color="#A8CCF7"/>
</linearGradient>
</defs>
</svg>
